<?xml version="1.0" standalone="no"?>
<!DOCTYPE svg PUBLIC "-//W3C//DTD SVG 20010904//EN"
 "http://www.w3.org/TR/2001/REC-SVG-20010904/DTD/svg10.dtd">
<svg version="1.0" xmlns="http://www.w3.org/2000/svg"
 width="500.000000pt" height="500.000000pt" viewBox="0 0 500.000000 500.000000"
 preserveAspectRatio="xMidYMid meet">
<metadata>
Created by potrace 1.11, written by Peter Selinger 2001-2013
</metadata>
<g transform="translate(0.000000,500.000000) scale(0.100000,-0.100000)"
fill="#000000" stroke="none">
<path d="M1307 4578 c-236 -140 -476 -360 -632 -582 -256 -363 -396 -750 -442
-1221 -7 -71 -10 -288 -4 -299 2 -5 5 -23 6 -40 2 -39 16 -155 21 -181 3 -11
7 -36 10 -55 3 -19 7 -43 10 -52 3 -10 8 -30 11 -45 25 -134 83 -295 165 -458
180 -360 476 -690 818 -913 109 -71 347 -190 475 -237 108 -40 295 -91 372
-100 27 -4 55 -8 63 -10 37 -10 166 -19 280 -18 190 0 291 10 470 50 433 95
831 315 1160 643 219 217 362 419 483 680 50 107 131 336 142 400 3 19 10 51
15 70 35 140 53 437 36 595 -63 564 -298 1068 -670 1436 -117 117 -192 173
-291 220 -90 42 -256 93 -355 108 -36 5 -85 13 -110 17 -66 9 -306 12 -375 4
-129 -16 -153 -23 -235 -65 -83 -42 -214 -83 -335 -105 -67 -12 -92 -31 -96
-75 -6 -73 58 -216 129 -288 54 -55 120 -89 213 -111 381 -88 747 -431 874
-819 13 -42 27 -91 30 -108 3 -18 8 -35 10 -39 2 -4 7 -34 11 -66 3 -32 7 -63
7 -68 5 -24 -242 -133 -356 -158 -55 -11 -56 -11 -63 27 -8 42 -22 64 -57 85
-30 18 -52 20 -290 20 -217 0 -264 -3 -293 -16 -33 -16 -35 -15 -86 15 -29 17
-51 31 -48 32 3 0 62 2 132 3 136 3 161 10 195 62 15 23 17 59 18 278 0 261
-4 303 -39 334 -37 33 -76 38 -332 37 -360 -2 -339 21 -339 -364 0 -241 -2
-279 -17 -301 -9 -14 -20 -37 -23 -52 l-7 -26 -119 -4 -119 -3 -32 -33 -33
-32 -2 -280 -2 -280 35 -36 c19 -21 33 -38 32 -39 -2 -1 -44 11 -94 28 l-91
29 -27 57 c-16 31 -41 75 -57 99 -16 24 -29 45 -29 48 0 3 -32 48 -71 100 -82
110 -228 258 -328 334 -78 59 -73 48 -74 185 0 51 11 192 18 225 3 14 8 39 11
55 24 135 79 278 175 455 74 137 -92 285 -229 205 -67 -40 -216 -329 -267
-518 -10 -37 -21 -70 -25 -72 -8 -5 39 187 66 270 56 174 156 390 240 523 113
176 276 354 430 469 48 36 24 26 -69 -29z m2199 -93 c53 -15 77 -35 89 -73 13
-44 -81 -108 -187 -126 -33 -5 -43 6 -29 32 24 45 22 83 -4 117 -28 37 -31 51
-12 58 29 9 95 6 143 -8z m-576 -93 c18 -14 21 -25 17 -45 -12 -47 -111 -48
-123 0 -14 53 59 83 106 45z m-480 -2141 c5 -68 7 -75 42 -106 l37 -34 267 0
c204 0 273 3 293 13 27 14 219 28 226 16 2 -3 -11 -7 -28 -8 -18 -1 -70 -9
-117 -17 -47 -7 -112 -17 -145 -20 -33 -4 -71 -9 -85 -11 -14 -2 -52 -6 -85
-9 -33 -3 -100 -10 -150 -14 -96 -9 -603 -7 -670 3 -210 32 -255 40 -255 45 0
3 117 6 260 6 l260 0 32 32 c31 31 32 36 36 127 l4 95 37 -23 c35 -22 36 -25
41 -95z"/>
</g>
</svg>
